# xmcd CD database file
#
# Track frame offsets:
#	150
#	21557
#	38890
#	53515
#	69562
#	89107
#	109895
#	130107
#	150062
#	167025
#	184445
#	201252
#	217580
#	236152
#	266407
#	282640
#
# Disc length: 4018 seconds
#
# Revision: 5
# Processed by: cddbd v1.5.2PL0 Copyright (c) Steve Scherf et al.
# Submitted via: CDex 1.70beta2
#
DISCID=e80fb010
DTITLE=Various Artist - New Music Best Collection 17
DYEAR=1991
DGENRE=J-POP(J)
TTITLE0=大滝詠一 - 君は天然色
TTITLE1=大滝詠一 - さらばシベリア鉄道
TTITLE2=南佳孝 - スローなブギにしてくれ
TTITLE3=南佳孝 - モンロー・ウォーク
TTITLE4=岸田智史 - きみの朝
TTITLE5=バンバン - 「いちご白書」をもう一度
TTITLE6=ばんばひろふみ - Sachiko
TTITLE7=上田正樹 - 悲しい色やね
TTITLE8=久保田早紀 - 異邦人
TTITLE9=堀江淳 - メモリーグラス
TTITLE10=村下孝蔵 - 初恋
TTITLE11=村下孝蔵 - ソネット
TTITLE12=海援隊 - 贈る言葉
TTITLE13=尾崎豊 - 卒業
TTITLE14=五輪真弓 - 合鍵
TTITLE15=五輪真弓 - 恋人よ
EXTD=YEAR: 1991
EXTT0=
EXTT1=
EXTT2=
EXTT3=
EXTT4=
EXTT5=
EXTT6=
EXTT7=
EXTT8=
EXTT9=
EXTT10=
EXTT11=
EXTT12=
EXTT13=
EXTT14=
EXTT15=
PLAYORDER=
